<?xml version="1.0" standalone="no"?>
<!DOCTYPE svg PUBLIC "-//W3C//DTD SVG 20010904//EN"
 "http://www.w3.org/TR/2001/REC-SVG-20010904/DTD/svg10.dtd">
<svg version="1.0" xmlns="http://www.w3.org/2000/svg"
 width="500.000000pt" height="500.000000pt" viewBox="0 0 500.000000 500.000000"
 preserveAspectRatio="xMidYMid meet">
<metadata>
Created by potrace 1.11, written by Peter Selinger 2001-2013
</metadata>
<g transform="translate(0.000000,500.000000) scale(0.100000,-0.100000)"
fill="#000000" stroke="none">
<path d="M474 4981 c-46 -21 -110 -90 -117 -127 -2 -13 -4 -250 -4 -525 l-1
-500 27 -52 c19 -37 39 -60 73 -80 l47 -29 1995 0 1995 0 46 22 c49 24 86 66
103 118 15 45 17 988 2 1043 -14 50 -64 107 -115 130 -38 18 -126 19 -2025 19
-1907 0 -1987 -1 -2026 -19z m3763 -394 c4 -4 6 -359 4 -487 l-1 -25 -1734 0
c-954 0 -1737 3 -1741 6 -5 6 -9 324 -6 476 1 29 4 32 39 35 62 5 3433 0 3439
-5z"/>
<path d="M475 3171 c-51 -23 -101 -80 -114 -128 -6 -22 -9 -242 -9 -530 1
-459 2 -495 20 -534 21 -47 53 -81 101 -106 29 -15 192 -16 2022 -16 2215 0
2033 -6 2100 68 54 58 55 71 55 597 0 530 -1 541 -58 602 -15 16 -45 37 -67
47 -39 18 -114 19 -2025 19 -1899 0 -1987 -1 -2025 -19z m3761 -394 c8 -8 7
-498 -1 -506 -9 -9 -3466 -8 -3471 1 -3 5 -5 106 -5 225 0 300 -1 281 18 285
30 6 3453 1 3459 -5z"/>
<path d="M565 1330 c-95 -7 -130 -25 -177 -90 l-33 -45 -1 -516 c-2 -568 -3
-558 60 -621 64 -63 -103 -58 2084 -58 2171 0 2025 -4 2086 57 67 65 66 56 66
605 0 469 -1 499 -19 541 -26 59 -74 105 -126 118 -43 11 -3783 19 -3940 9z
m3677 -658 c0 -140 -3 -256 -5 -259 -3 -2 -786 -5 -1741 -6 l-1736 -2 -1 60
c-2 218 0 446 4 452 3 5 787 8 1742 8 l1737 0 0 -253z"/>
</g>
</svg>
